<?xml version="1.0" standalone="no"?>
<!DOCTYPE svg PUBLIC "-//W3C//DTD SVG 20010904//EN"
 "http://www.w3.org/TR/2001/REC-SVG-20010904/DTD/svg10.dtd">
<svg version="1.0" xmlns="http://www.w3.org/2000/svg"
 width="1280.000000pt" height="1041.000000pt" viewBox="0 0 1280.000000 1041.000000"
 preserveAspectRatio="xMidYMid meet">
<metadata>
Created by potrace 1.15, written by Peter Selinger 2001-2017
</metadata>
<g transform="translate(0.000000,1041.000000) scale(0.100000,-0.100000)"
fill="#000000" stroke="none">
<path style="fill:#FE7F85;" d="M4029 9768 c-20 -11 -46 -38 -58 -58 -20 -36 -21 -52 -21 -306 0
-201 -3 -265 -11 -257 -9 9 -20 6 -44 -12 -69 -53 -234 -113 -321 -117 -22 -1
-6 -4 36 -8 41 -4 -64 -6 -235 -6 -172 0 -270 3 -220 6 63 4 75 7 40 8 -27 2
-93 12 -145 24 -56 12 -154 23 -240 27 l-145 7 158 2 157 2 0 70 0 70 -650 0
-650 0 0 -70 0 -70 158 -2 157 -2 -145 -6 c-82 -4 -172 -14 -206 -23 -34 -9
-92 -21 -130 -26 l-69 -8 75 -4 c41 -1 -49 -5 -200 -9 -261 -6 -279 -8 -346
-32 -173 -61 -294 -192 -338 -364 -14 -56 -16 -410 -16 -3672 0 -2598 3 -3626
11 -3664 39 -189 208 -358 397 -397 29 -6 119 -12 200 -12 81 -1 131 -4 112
-8 -31 -5 -22 -9 85 -39 66 -18 123 -32 127 -32 3 0 9 8 11 18 3 9 5 -27 6
-80 l1 -98 200 0 200 0 1 103 c1 56 4 90 6 75 4 -24 7 -26 28 -18 25 10 157
42 230 56 l40 8 -40 6 c-22 4 1852 7 4165 7 2313 0 4187 -3 4165 -6 -37 -6
-31 -8 69 -29 61 -13 127 -29 147 -36 37 -13 38 -13 42 13 2 14 5 -20 6 -76
l1 -103 200 0 200 0 0 93 c0 56 4 87 9 78 7 -11 30 -8 132 20 111 30 120 35
89 40 -19 4 31 7 112 8 169 1 227 11 318 54 83 38 195 148 234 228 60 124 56
-161 56 3783 0 3269 -2 3624 -16 3680 -44 172 -165 303 -338 364 -67 24 -85
26 -346 32 -151 4 -241 8 -200 9 l75 4 -69 8 c-38 5 -96 17 -130 26 -34 9
-124 19 -206 23 l-145 6 158 2 157 2 0 70 0 70 -650 0 -650 0 0 -70 0 -70 158
-2 157 -2 -145 -7 c-86 -4 -184 -15 -240 -27 -52 -12 -117 -22 -145 -24 -35
-1 -23 -4 40 -8 50 -3 -52 -6 -225 -6 -173 0 -281 2 -240 6 52 4 62 7 31 8
-118 5 -341 100 -354 150 -3 10 -5 4 -6 -12 0 -16 -4 -27 -7 -23 -4 3 -9 131
-13 284 -6 266 -7 279 -28 309 -50 70 160 64 -2415 64 l-2323 0 -36 -22z
m4294 -276 l227 -3 -2 -197 -3 -197 -2 193 -3 192 -43 -1 c-25 -1 -32 -4 -17
-6 34 -5 50 -44 50 -120 0 -152 -131 -268 -353 -314 -95 -19 -136 -19 -1819
-17 l-1723 3 -80 23 c-131 38 -210 90 -268 177 -15 22 -27 51 -28 65 -1 35 -8
15 -18 -55 -7 -50 -9 -34 -10 97 l-1 158 223 2 c308 4 3590 4 3870 0z m-1026
-489 c-500 -2 -1314 -2 -1810 0 -496 1 -87 2 908 2 996 0 1401 -1 902 -2z"/>
<path d="M4249 9433 l4 -48 9 42 c7 35 13 42 36 46 20 3 16 4 -13 6 l-40 1 4
-47z"/>
</g>
</svg>
